<svg width="325" height="329" viewBox="0 0 325 329" fill="none" xmlns="http://www.w3.org/2000/svg">
<path d="M253.635 74.162L236.302 87.8703L162.5 143.389L88.6976 87.322L71.3643 73.6136C67.2809 70.194 62.2961 68.0623 57.0276 67.4826C51.759 66.9029 46.4383 67.9006 41.7244 70.3522C37.0106 72.8038 33.1108 76.6015 30.5083 81.2749C27.9058 85.9482 26.7148 91.2918 27.083 96.6436V255.523C27.083 260.468 29.0234 265.21 32.4772 268.706C35.931 272.202 40.6153 274.167 45.4997 274.167H88.6976V168.338L162.5 224.405L236.302 168.338V274.167H279.5C284.384 274.167 289.068 272.202 292.522 268.706C295.976 265.21 297.916 260.468 297.916 255.523V96.6436C298.171 91.338 296.897 86.0718 294.25 81.4853C291.603 76.8987 287.697 73.1893 283.006 70.808C278.316 68.4266 273.043 67.4759 267.829 68.0713C262.615 68.6667 257.684 70.7827 253.635 74.162Z" fill="#505776"/>
</svg>
