<svg width="329" height="325" viewBox="0 0 329 325" fill="none" xmlns="http://www.w3.org/2000/svg">
<g clip-path="url(#clip0_306_205)">
<path d="M254.44 178.181C239.334 178.181 225.173 171.857 212.301 161.566L215.426 146.995L215.536 146.426C218.374 130.948 227.174 104.989 254.454 104.989C274.907 104.989 291.508 121.401 291.508 141.592C291.494 161.755 274.893 178.181 254.44 178.181ZM254.44 67.9522C219.635 67.9522 192.616 90.2824 181.649 127.075C164.925 102.24 152.204 72.4209 144.815 47.2876H107.309V143.596C107.281 162.636 91.6676 178.073 72.3937 178.1C53.1335 178.073 37.5334 162.622 37.506 143.596V47.2876H0V143.596C0 183.056 32.4888 215.407 72.3937 215.407C112.326 215.407 144.815 183.056 144.815 143.596V127.481C152.067 142.472 161.018 157.666 171.875 171.099L148.941 277.713H187.283L203.911 200.39C218.483 209.584 235.235 215.407 254.44 215.407C295.565 215.407 329 182.203 329 141.605C329 100.98 295.565 67.9522 254.44 67.9522Z" fill="#545C7C"/>
</g>
<defs>
<clipPath id="clip0_306_205">
<rect width="329" height="325" fill="white"/>
</clipPath>
</defs>
</svg>
